<?xml version="1.0" encoding="UTF-8"?>
<svg id="Layer_2" data-name="Layer 2" xmlns="http://www.w3.org/2000/svg" viewBox="0 0 909.32 352.62">
  <defs>
    <style>
      .cls-1 {
        font-family: Cairo-Black, Cairo;
        font-size: 121.18px;
        font-weight: 800;
      }

      .cls-1, .cls-2, .cls-3 {
        fill: #00a651;
      }

      .cls-4 {
        fill: #ed1c24;
      }

      .cls-3 {
        font-family: Cairo-ExtraBold, Cairo;
        font-size: 94.14px;
        font-weight: 700;
      }
    </style>
  </defs>
  <g id="Layer_1-2" data-name="Layer 1">
    <g>
      <path class="cls-2" d="M787.32,216.82c5.44-.29,36.53,11.47,43.9,14.21,9.81,3.64,23.31,6.67,29.26,15.61,8.32,12.51,5.47,27.92-6.5,36.8-18.2,13.49-38.51-7.65-59.25,16.08-9.75,11.15-7.09,18.38-11.38,30.28-9.17,25.41-48.25,22.1-51.68-5.65-1.16-9.42-1.51-59.58.8-66.84,2.81-8.81,8.72-7.88,15.28-11.16,9.59-4.79,15.44-8.57,22.97-16.29,5.28-5.41,7.14-12.53,16.6-13.04Z"/>
      <path class="cls-2" d="M661.54,216.78c10.67-.7,13.97,9.1,19.82,15.04,2.37,2.41,8.26,6.97,11.19,8.84,8.41,5.38,23.63,7.16,25.71,17.56,1.86,9.28,1.62,58.35.14,68.33-3.08,20.83-31.31,27.01-45.51,12.26-12.68-13.17-3.49-32.2-24.7-45.81-18.59-11.93-29.39-.44-45.2-6.09-19.47-6.95-24.19-33.83-7.26-46.15,5.07-3.69,15.21-6.61,21.49-8.96,8.32-3.12,37.55-14.59,44.32-15.04Z"/>
      <path class="cls-4" d="M821.8,79.02c13.99-2.09,29.26,6.34,31.37,21.09,3.1,21.66-18.4,30.92-3.27,57.74,9.13,16.18,27.93,15.56,33.21,32.49,6.37,20.44-8.49,38.37-29.91,34.71-9.61-1.64-47.66-15.85-57.28-20.45-12.21-5.85-8.63-13.1-10.1-23.55-1.21-8.56-3.88-15.84-7.78-23.47-4.11-8.05-10.82-11.48-5.61-22.16,4.03-8.27,28-40.08,34.8-47.73,3.7-4.17,8.92-7.83,14.57-8.67Z"/>
      <path class="cls-4" d="M641.38,85.51c8.03,8.01,21.19,27.85,28.19,37.91,2.01,2.88,9.02,11.88,9.59,14.45,2.45,10.91-9.45,22.23-12.59,34.34-2.06,7.95-1.36,22.9-5.66,27.99-3.94,4.68-19.6,9.2-26.04,11.62-11.71,4.39-36.75,15-48.1,13.61-17.07-2.1-24.85-22.79-18.43-37.65,7.11-16.44,29.15-14.56,35.67-37.25,6.99-24.32-12.48-35.28-5.21-54.88,6.24-16.81,29.58-23.1,42.57-10.14Z"/>
      <path class="cls-2" d="M671.12,42.96c23.63-3.71,27.65,19.58,49.46,21.47,29.45,2.55,30.74-19.1,49.79-21.59,22.27-2.91,36.81,20.15,25.02,39.43-6.81,11.13-23.28,33.8-31.93,43.39-10.78,11.95-17.75,3.4-30.13,2.13-3.96-.4-10.39-.46-14.35-.13-14.17,1.18-20.26,10.45-32.4-2.81-5.8-6.33-33.24-43.45-35.06-49.88-3.82-13.49,5.55-29.82,19.6-32.02Z"/>
      <path class="cls-2" d="M842.53,344.51c-25.2,24.79-64.03-12.71-39.77-38.55,25.27-26.91,65.91,12.83,39.77,38.55Z"/>
      <path class="cls-2" d="M623.05,297.74c42.3-5.71,42.02,60.48-.8,54.06-29.67-4.45-28.99-50.04.8-54.06Z"/>
      <path class="cls-4" d="M877.08,111.85c39.02-5.92,43.55,50.6,8.53,54.19-35.85,3.67-41.43-49.2-8.53-54.19Z"/>
      <path class="cls-4" d="M562.95,111.87c39.19-5.74,43.33,50.57,8.52,54.18-35.88,3.72-41.37-49.37-8.52-54.18Z"/>
      <path class="cls-2" d="M719.21.49c43.78-6.84,43.45,59.67.82,53.27-28.8-4.32-28.39-48.96-.82-53.27Z"/>
    </g>
    <g>
      <text class="cls-3" transform="translate(88.74 244.66)"><tspan x="0" y="0">MAAKON</tspan></text>
      <text class="cls-1" transform="translate(0 166.43) scale(.98 1)"><tspan x="0" y="0">مــعــكــن</tspan></text>
    </g>
  </g>
</svg>