<?xml version="1.0" encoding="UTF-8"?>
<svg id="Layer_2" data-name="Layer 2" xmlns="http://www.w3.org/2000/svg" viewBox="0 0 728.96 761.61">
  <defs>
    <style>
      .cls-1 {
        fill: #fff;
      }
    </style>
  </defs>
  <g id="Layer_1-2" data-name="Layer 1">
    <g>
      <path class="cls-1" d="M545.48,211.09c-16.62-2.26-42.84-18.03-58.05-19.02-1.18-.08-2.75-.51-3.56.62-1.68,2.35-2.9,10.24-.94,12.96,12.75,12.01,26.79,22.55,40.07,33.93,34.05,29.18,68.14,58.61,102.51,87.49,6.45,5.42,16.2,11.38,21.96,17.04.97.95,1.9,1.29,1.52,2.97-6.31.99-12.57,3.16-19.05,1.56-24.55-8.47-49.29-23.3-73.68-31.32-2.12-.7-3.79-2.01-5.84-.34s-5.21,12.94-6.74,16.29c-37.94,83.23-104.52,154.74-162.74,224.02-2.89,1.64-12.74,15.94-14.43,15.91-2.91-.06-5.1-3.07-7.02-5.09-56.03-58.67-144.56-165.32-174.84-239.16-1.42-3.46-5.77-18.95-7.05-19.94-1.98-1.54-3.49-.86-5.63-.47-15.4,2.77-36.39,16.17-52.71,19.32-2.97-.7-25.24-4.87-25.23-6.26,18.3-13.7,37.14-27.02,56.06-39.91,9.17-6.25,26.97-14.99,33.95-22.05s12.6-21.18,19.55-29.45c9.45-11.25,29.93-13.07,39.39-23.61,3.19-3.55,11.18-17.43,6.77-21.23-6.12-5.29-42.16,9.41-43.74,7.76.89-3.24-2.84-10.59-1.56-12.99.91-1.72,27.52-18.73,31.65-21.43,11.54-7.54,25.37-14.72,36.25-22.75s14.11-15.53,20.49-26.54c.64-1.29-.21-2.9-1.44-3.23-1.42-.38-24.68,6.37-28.39,7.42-6.24,1.78-13.69,5.63-19.98,5.02,6.75-5.53,12.88-11.84,19.52-17.48,20.97-17.81,43.88-34.63,63.12-54.38,14.1-14.47,25.31-31.69,38.89-46.62,1.94-.47,1.23.54,1.72,1.23,14.07,19.72,26.3,40.77,40.71,60.27,6.66,4.99,15.35,6.71,23,10,24.15,10.38,41.19,15.98,61.05,33.95,9.99,9.04,28.29,25.49,36.5,35.5,2.96,3.61,5.42,7.82,7.49,12l-41.51-8.08-3.49,1.62c1.8,8.09,6.6,11.51,12.52,16.44,18.72,15.59,41.49,29.5,59.81,45.19,1.05.9,2.08.97,1.66,2.84-5.82-.56-12.86.77-18.5,0ZM425.63,180.44c-41.88-42.16-114.37-28.79-138.51,25.29-33.66,75.43,50.15,149.59,120.78,108.78,48.32-27.93,57.08-94.46,17.73-134.07Z"/>
      <path class="cls-1" d="M514.48,761.09c-2.05-.58-18.46-19.4-21.91-22.55-7.07-6.44-9.53-7.15-19.1-8.43-15.29-2.04-32.07-1.96-47.49-3.02-1.08,10.02,5.43,18.91,5,29.01-5.74.3-10.59-2.26-15.31-5.19-13.57-8.41-26.17-23.26-40.24-31.76-5.32-3.83-3.2-15.76-8.69-18.31-5.88-2.74-23.78,1.4-31.21,1.3-14.07-.19-28.63-8.73-42.08-2.07-5.11,2.53-9.16,7.47-13.53,10.47-9.19,6.29-25.68,19.05-34.95,23.05-18.76,8.09-44.77,6.88-62.79,14.21-5.67,2.31-13.06,11.38-18.15,12.85-3.58,1.04-10.3.98-14.04.45-.72-.98,7.62-11.88,9.02-13.47,15.69-17.79,43.3-19.74,62.32-31.68,12.33-7.74,43.31-50,51.28-63.72,6.87-11.82,6.85-29.16,5.38-42.63-1.75-16.08-23.23-23.3-33.63-33.37l-3.77-1.09-128.75,48.31c-20.67,3.02-41.96,1.58-62.86,1.16-1.69-3.61-8.04-8.71-9.51-11.49-.71-1.33-.71-1.61.53-2.51,35.4-11.84,71.62-22.35,105.98-37.02,11.06-4.72,20.56-9.7,28.66-18.84,2.64-2.98,11.52-14.94,9.21-18.51-.83-1.28-26.78-10.75-28.52-10.84-3.64-.19-15.77,7.54-19.99,9.57-25.94,12.46-77.93,40.44-104.87,42.12-11.89.74-21.31-5.63-30.47-12.48,8.4-4.18,19.35-4.6,27.32-9.66s19.06-18.55,26.65-25.35c6.94-6.22,15.31-13.84,22.7-19.3,20.37-15.05,45.54-26.22,66.79-40.21,6.84-8.2-3.23-26.19-8.65-33.3-4.08-5.35-5.13-7.05-11.51-3.85-13.16,6.6-27.03,18.5-40.43,24.56-1.7.77-4.99,2.24-6.65,2.42-2.98.33-23.39-5.91-27.03-7.52-1.67-.74-3.09-1.12-4.19-2.8l61.47-57.51c14.23-8.71,39.58-11.33,50.48-23.52,2.8-3.13,6.28-10.42,8.55-12.45.98-.88,1.51-1.3,2.95-1.07l31.55,54.54c.22,2.07-.11,1.31-1.49,1.51-5.96.84-13.78-.45-20.07-.04-4.01.26-27.95,3.95-29.33,6.16-1.84,2.97,8.68,14.65,10.7,17.55,1.73,2.49,7.83,13.61,8.65,14.35,4.2,3.75,22.26-3.46,27.5-5.53,4.85-1.92,15.04-8.16,18.93-8.99.87-.18,1.61-.04,2.35.43,18.92,27.4,39.54,53.69,60.81,79.26,23.47,28.21,49.13,54.39,73.44,81.8,8.51,9.59,9.08,20.5,21.43,8.21,31.34-31.16,63.74-70.65,92.02-104.97,1.86-2.26,5.51-8.87,7.47-10.3,4.13-3.03,29.57.76,36.83-1.17,4.34-1.15,21.66-17.34,21.26-21.87-.49-5.58-10.14-11.04-15.08-11.83-5.63-.9-10.94,1.42-16.44.44,21.81-28.55,42.77-58.63,59.39-90.61,2-3.85,2.15-9.19,6.24-11.75l97.96,39.82c0,4.42-.97,12.06-6.12,13.02-30.64,1.55-61.34,2.4-91.89,4.91-.87.62-1.64,14.14,1.06,14.97,12.45,1.77,26.41,2.54,38.58,5.42,12.89,3.06,21.05,15.02,30.76,23.24,23.8,20.15,48.95,38.89,72.01,59.99-11.44,2.54-23.53,5.49-35.44,5.43l-49.9-20.64c-3.41.17-17.79,12.41-20.2,15.67-3,4.07-6.54,11.48-2.9,15.98,2.64,3.27,18.37,10.09,23.13,12.87,30.87,18.02,62.59,35.47,91.97,55.53,2.54,2.93,15.99,28.67,15.3,31.06-.44,1.5-11.21,2.66-13.45,2.67-4.52.03-9.03-1.31-13.55-1.54-27.4-13.76-53.97-29.28-81.7-42.3-29.75-2.86-64.5,3.06-93.65-.35-15.89-1.85-33.5-15.65-48.33-20.66-2.05-.69-4.11-1.93-6.24-.75-5.3,7.59-22.68,17.17-23.94,26.11-2.13,15.06,1.96,36.67,3.9,51.92,1.32,10.38,2.08,24.23,4.7,34.3,1.09,4.19,3.93,6.3,6.8,9.23,19.99,20.38,45.98,38.94,67.04,58.93,3.88,3.68,10.44,8.45,9.47,14.03-6.62-1.21-19.78,1.63-25.5,0ZM574.73,469.28c-6.77,1.31-30.17,19.86-34.18,25.88-.73,1.1-2.07,2.5-1.15,3.96s24.31,10.26,27.32,10.74c3.18.51,7.99.91,10.81-.71,1.26-.72,11.69-12.48,13.42-14.58,8.74-10.63,10.05-12.08-2.66-20.28-3.68-2.37-9.02-5.88-13.56-5.01Z"/>
    </g>
  </g>
</svg>