<?xml version="1.0" encoding="UTF-8"?>
<svg id="Layer_2" data-name="Layer 2" xmlns="http://www.w3.org/2000/svg" viewBox="0 0 512.54 490.91">
  <defs>
    <style>
      .cls-1 {
        fill: #00a651;
      }

      .cls-2 {
        fill: #ed1c24;
      }
    </style>
  </defs>
  <g id="Layer_1-2" data-name="Layer 1">
    <g>
      <path class="cls-1" d="M342.69,301.85c7.58-.4,50.85,15.97,61.11,19.78,13.66,5.06,32.45,9.29,40.73,21.74,11.59,17.41,7.62,38.87-9.05,51.24-25.33,18.79-53.61-10.65-82.49,22.38-13.57,15.52-9.87,25.59-15.85,42.16-12.77,35.38-67.17,30.77-71.95-7.87-1.62-13.11-2.1-82.94,1.12-93.06,3.91-12.26,12.14-10.96,21.28-15.53,13.35-6.67,21.5-11.93,31.98-22.68,7.35-7.53,9.94-17.44,23.11-18.15Z"/>
      <path class="cls-1" d="M167.58,301.8c14.85-.98,19.44,12.66,27.59,20.94,3.31,3.36,11.51,9.71,15.58,12.31,11.7,7.49,32.9,9.97,35.8,24.44,2.59,12.92,2.26,81.23.2,95.13-4.29,29-43.58,37.61-63.35,17.07-17.66-18.34-4.86-44.82-34.39-63.77-25.88-16.61-40.91-.61-62.93-8.47-27.11-9.68-33.68-47.1-10.1-64.25,7.06-5.14,21.17-9.2,29.91-12.48,11.58-4.34,52.28-20.32,61.7-20.94Z"/>
      <path class="cls-2" d="M390.69,110.01c19.47-2.91,40.74,8.83,43.67,29.37,4.31,30.15-25.61,43.04-4.55,80.39,12.71,22.53,38.89,21.66,46.24,45.24,8.87,28.46-11.82,53.42-41.64,48.32-13.38-2.29-66.36-22.06-79.74-28.47-17-8.14-12.01-18.24-14.06-32.79-1.68-11.91-5.4-22.06-10.83-32.68-5.72-11.21-15.07-15.99-7.81-30.86,5.61-11.51,38.98-55.8,48.44-66.45,5.16-5.8,12.42-10.9,20.28-12.07Z"/>
      <path class="cls-2" d="M139.52,119.05c11.18,11.15,29.5,38.77,39.25,52.78,2.79,4.01,12.55,16.53,13.36,20.11,3.41,15.19-13.15,30.94-17.53,47.8-2.87,11.06-1.89,31.88-7.87,38.97-5.49,6.51-27.29,12.81-36.26,16.17-16.31,6.11-51.16,20.88-66.96,18.94-23.76-2.92-34.59-31.73-25.66-52.41,9.89-22.89,40.58-20.27,49.66-51.85,9.73-33.86-17.38-49.12-7.25-76.4,8.69-23.4,41.18-32.15,59.26-14.11Z"/>
      <path class="cls-1" d="M180.92,59.8c32.89-5.16,38.5,27.26,68.85,29.89,41.01,3.56,42.8-26.59,69.32-30.06,31-4.06,51.25,28.05,34.83,54.9-9.47,15.5-32.41,47.05-44.46,60.4-15.01,16.64-24.71,4.73-41.94,2.97-5.51-.56-14.46-.64-19.98-.18-19.73,1.64-28.21,14.55-45.11-3.91-8.07-8.81-46.27-60.48-48.81-69.44-5.32-18.79,7.73-41.51,27.29-44.58Z"/>
      <path class="cls-1" d="M419.56,479.61c-35.08,34.51-89.14-17.69-55.36-53.67,35.18-37.47,91.76,17.87,55.36,53.67Z"/>
      <path class="cls-1" d="M114,414.5c58.89-7.95,58.5,84.21-1.11,75.26-41.31-6.2-40.36-69.67,1.11-75.26Z"/>
      <path class="cls-2" d="M467.65,155.72c54.32-8.25,60.62,70.45,11.88,75.44-49.91,5.12-57.68-68.49-11.88-75.44Z"/>
      <path class="cls-2" d="M30.32,155.74c54.56-7.99,60.32,70.4,11.86,75.42-49.95,5.17-57.59-68.73-11.86-75.42Z"/>
      <path class="cls-1" d="M247.86.69c60.95-9.52,60.49,83.07,1.14,74.16-40.1-6.02-39.52-68.17-1.14-74.16Z"/>
    </g>
  </g>
</svg>